<svg width="24" height="23" viewBox="0 0 24 23" fill="none" xmlns="http://www.w3.org/2000/svg">
<path d="M7.99834 2.2998C4.91114 2.2998 2.3999 4.70864 2.3999 7.66797V15.3346C2.3999 18.2932 4.91346 20.6998 8.00146 20.6998H16.0015C19.0887 20.6998 21.5999 18.291 21.5999 15.3316V7.66497C21.5999 4.70641 19.0863 2.2998 15.9983 2.2998H7.99834ZM17.5999 5.36647C18.0415 5.36647 18.3999 5.70994 18.3999 6.13314C18.3999 6.55634 18.0415 6.8998 17.5999 6.8998C17.1583 6.8998 16.7999 6.55634 16.7999 6.13314C16.7999 5.70994 17.1583 5.36647 17.5999 5.36647ZM11.9999 6.8998C14.6471 6.8998 16.7999 8.9629 16.7999 11.4998C16.7999 14.0367 14.6471 16.0998 11.9999 16.0998C9.3527 16.0998 7.1999 14.0367 7.1999 11.4998C7.1999 8.9629 9.3527 6.8998 11.9999 6.8998ZM11.9999 8.43314C11.1512 8.43314 10.3373 8.75623 9.73716 9.33134C9.13704 9.90646 8.7999 10.6865 8.7999 11.4998C8.7999 12.3131 9.13704 13.0932 9.73716 13.6683C10.3373 14.2434 11.1512 14.5665 11.9999 14.5665C12.8486 14.5665 13.6625 14.2434 14.2626 13.6683C14.8628 13.0932 15.1999 12.3131 15.1999 11.4998C15.1999 10.6865 14.8628 9.90646 14.2626 9.33134C13.6625 8.75623 12.8486 8.43314 11.9999 8.43314Z" fill="white"/>
</svg>
