<svg width="23" height="23" viewBox="0 0 23 23" fill="none" xmlns="http://www.w3.org/2000/svg">
<path d="M21.0834 3.83252C20.3359 4.27623 18.8361 4.88094 17.9545 5.05535C17.9286 5.06206 17.9075 5.07069 17.8826 5.07739C17.1035 4.30881 16.0359 3.83252 14.8542 3.83252C12.4728 3.83252 10.5417 5.76356 10.5417 8.14502C10.5417 8.27056 10.5312 8.50152 10.5417 8.62419C7.32846 8.62419 4.88279 6.94135 3.12904 4.79085C2.93833 5.27002 2.85496 6.0271 2.85496 6.73819C2.85496 8.08081 3.90433 9.39948 5.53829 10.2169C5.23737 10.2946 4.90579 10.3501 4.56079 10.3501C4.004 10.3501 3.41462 10.2035 2.87508 9.75885C2.87508 9.77515 2.87508 9.79048 2.87508 9.80773C2.87508 11.6841 4.8665 12.9616 6.6375 13.3171C6.27812 13.5289 5.55362 13.55 5.2 13.55C4.95083 13.55 4.06916 13.436 3.83341 13.3919C4.326 14.93 6.10275 15.7944 7.79612 15.8251C6.47171 16.8639 5.55266 17.2492 2.84058 17.2492H1.91675C3.63025 18.3474 5.81237 19.1668 7.99929 19.1668C15.1197 19.1668 19.1667 13.7398 19.1667 8.62419C19.1667 8.54177 19.1648 8.36927 19.162 8.19581C19.162 8.17856 19.1667 8.16227 19.1667 8.14502C19.1667 8.11914 19.1591 8.09423 19.1591 8.06835C19.1562 7.93802 19.1533 7.81631 19.1505 7.75306C19.9075 7.20681 20.564 6.52544 21.0834 5.74919C20.3886 6.05777 19.643 6.26477 18.8601 6.35869C19.6593 5.87952 20.795 4.73719 21.0834 3.83252Z" fill="white"/>
</svg>
