<svg width="23" height="23" viewBox="0 0 23 23" fill="none" xmlns="http://www.w3.org/2000/svg">
<path d="M18.8601 1.83984H4.14009C2.87187 1.83984 1.84009 2.87162 1.84009 4.13984V18.8598C1.84009 20.1281 2.87187 21.1598 4.14009 21.1598H18.8601C20.1283 21.1598 21.1601 20.1281 21.1601 18.8598V4.13984C21.1601 2.87162 20.1283 1.83984 18.8601 1.83984ZM17.0228 10.2684C16.9184 10.2781 16.8126 10.2845 16.7054 10.2845C15.4989 10.2845 14.4386 9.66398 13.8217 8.72604C13.8217 11.1866 13.8217 13.9861 13.8217 14.0331C13.8217 16.1992 12.0654 17.9555 9.89929 17.9555C7.73315 17.9555 5.97687 16.1992 5.97687 14.0331C5.97687 11.8669 7.73315 10.1106 9.89929 10.1106C9.98117 10.1106 10.0612 10.118 10.1417 10.1231V12.056C10.0612 12.0463 9.98209 12.0316 9.89929 12.0316C8.79345 12.0316 7.89737 12.9277 7.89737 14.0335C7.89737 15.1394 8.79345 16.0354 9.89929 16.0354C11.0051 16.0354 11.9817 15.1642 11.9817 14.0584C11.9817 14.0147 12.001 5.04512 12.001 5.04512H13.8484C14.0223 6.69698 15.3558 8.00062 17.0228 8.12022V10.2684Z" fill="white"/>
</svg>
