<svg width="82" height="17" viewBox="0 0 82 17" fill="none" xmlns="http://www.w3.org/2000/svg">
<path d="M14.3394 14.2164C13.4053 14.8058 12.3102 15.1219 11.1893 15.1257C9.36781 15.1257 7.6511 14.2876 6.45652 12.8244L6.44186 12.8104C5.53425 11.7876 4.99387 10.2826 4.9485 8.69258V8.32336C4.99387 6.72934 5.53076 5.22699 6.45652 4.19023C7.6511 2.72906 9.36781 1.88956 11.1893 1.88956C12.3101 1.89318 13.4052 2.20904 14.3394 2.79813C15.1805 3.51853 15.8529 4.39903 16.3132 5.38257C16.7736 6.3661 17.0114 7.43073 17.0114 8.5073C17.0114 9.58395 16.7736 10.6485 16.3132 11.632C15.8529 12.6156 15.1805 13.4961 14.3394 14.2164ZM8.5447 16.1764C6.46673 16.0888 4.50484 15.2402 3.06946 13.8081C1.63409 12.3761 0.836415 10.4714 0.843324 8.49269C0.843324 4.26063 4.47374 0.795009 8.93497 0.795009H8.96498C9.66596 0.798177 10.3634 0.88815 11.0399 1.06267C9.00971 1.10784 7.1135 2.05892 5.81491 3.66421C4.78443 4.82849 4.15748 6.50484 4.12746 8.29414V8.6773C4.17214 10.4527 4.78443 12.131 5.81491 13.2933C7.12815 14.9125 9.02646 15.8643 11.0511 15.9068C10.237 16.1299 9.38924 16.2211 8.5433 16.1764H8.5447ZM14.877 2.15854C13.2496 0.766826 11.138 -0.00214822 8.94962 4.50765e-06H8.91961C6.58905 0.00331085 4.35211 0.872957 2.68615 2.42338C1.02019 3.97379 0.0571213 6.08219 0.00246009 8.29866C-0.0522011 10.5152 0.805867 12.6642 2.39357 14.2872C3.98128 15.9103 6.17289 16.8788 8.50073 16.9861C8.6348 16.9861 8.78415 17 8.91961 17C10.7303 17.0008 12.4985 16.4782 13.9901 15.5017C15.4816 14.5252 16.6262 13.1406 17.2721 11.5314C17.918 9.92222 18.0349 8.16432 17.6072 6.49053C17.1795 4.81676 16.2274 3.30607 14.877 2.15854Z" fill="#0ED3DF"/>
<path d="M10.5625 3.13886C12.1599 4.11851 13.2497 6.14952 13.2497 8.5073C13.2497 10.8651 12.1445 12.8954 10.5625 13.8758C12.5927 13.7051 14.2202 11.3759 14.2202 8.5073C14.2202 5.63879 12.5927 3.30889 10.5625 3.13886Z" fill="#0ED3DF"/>
<path fill-rule="evenodd" clip-rule="evenodd" d="M20.7112 9.06704C20.7112 6.95552 22.4253 5.24765 24.5276 5.24765C26.6299 5.24765 28.344 6.95552 28.344 9.06704C28.344 11.2096 26.6299 12.9175 24.5276 12.9175C22.4253 12.9175 20.7112 11.1786 20.7112 9.06704ZM21.3257 9.06704C21.3257 10.868 22.7488 12.3275 24.5276 12.3275C26.3065 12.3275 27.7295 10.868 27.7295 9.06704C27.7295 7.26604 26.3065 5.80658 24.5276 5.80658C22.7811 5.80658 21.3257 7.26604 21.3257 9.06704ZM31.6494 7.2598C30.8731 7.2598 30.194 7.63247 29.7088 8.19141V7.38404H29.0943V14.3086H29.7088V11.8244C30.1616 12.3834 30.8408 12.756 31.6494 12.756C33.1048 12.756 34.3015 11.5139 34.3015 9.99241C34.3338 8.50192 33.1372 7.2598 31.6494 7.2598ZM31.6494 12.166C30.5174 12.166 29.6118 11.2034 29.6118 10.0234C29.6118 8.84345 30.5174 7.88083 31.6494 7.88083C32.7814 7.88083 33.687 8.84345 33.687 10.0234C33.687 11.2034 32.7814 12.166 31.6494 12.166ZM34.6831 10.0234C34.6831 8.50192 35.8798 7.2598 37.3352 7.2598C38.92 7.2598 40.0196 8.40876 39.9873 10.0234V10.2098H35.2976C35.3946 11.2966 36.2679 12.166 37.3352 12.166C38.1437 12.166 38.8553 11.6692 39.1787 10.924L39.7286 11.2345C39.3081 12.166 38.3701 12.7871 37.3352 12.7871C35.8798 12.7871 34.6831 11.545 34.6831 10.0234ZM39.3404 9.6819C39.2111 8.56402 38.4348 7.84982 37.3352 7.84982C36.3326 7.84982 35.4917 8.65718 35.33 9.6819H39.3404ZM43.098 7.25389C42.8716 7.25389 42.6775 7.31598 42.4835 7.40914C42.0954 7.62649 41.8043 7.93701 41.6102 8.34069V7.40914H40.9957V12.5948H41.6102V9.86226C41.6102 9.48958 41.6749 9.17907 41.8043 8.86855C41.9337 8.58912 42.0954 8.34069 42.3218 8.12334C42.6128 7.87492 42.911 7.79988 43.2991 7.86197C43.3567 7.84384 43.389 7.85161 43.3961 7.87751C43.4285 7.88528 43.4861 7.87492 43.4931 7.89305C43.5111 7.79005 43.574 7.65936 43.6096 7.55311C43.6383 7.46718 43.6657 7.38537 43.6801 7.31598C43.4861 7.25389 43.2597 7.22281 43.098 7.25389ZM47.9888 7.3786V8.15489C47.536 7.59594 46.8568 7.22334 46.0483 7.22334C44.5928 7.22334 43.3961 8.4654 43.3961 9.98697C43.3961 11.5085 44.5928 12.7506 46.0483 12.7506C46.8245 12.7506 47.5036 12.378 47.9888 11.819V12.5953H48.6033V7.3786H47.9888ZM46.0483 12.1296C44.9162 12.1296 44.0106 11.1669 44.0106 9.98697C44.0106 8.807 44.9162 7.84437 46.0483 7.84437C47.1802 7.84437 48.0858 8.807 48.0858 9.98697C48.0858 11.1669 47.1802 12.1296 46.0483 12.1296Z" fill="white"/>
<path d="M55.5735 5.72757C56.7702 5.72757 57.5646 6.22298 58.2311 7.38371L58.2505 7.41871L58.8101 7.03973L58.7971 7.01237C58.206 5.81871 57.0051 5.10608 55.5857 5.10608C54.6161 5.10608 53.6543 5.51721 52.9468 6.23531C52.2129 6.98474 51.808 7.97393 51.8155 8.99944C51.8155 11.2189 53.4122 12.8928 55.5304 12.8928C57.4109 12.8928 58.2599 11.8746 58.7842 10.988L58.8008 10.9599L58.2505 10.5899L58.2304 10.6255C57.6012 11.7636 56.7788 12.27 55.5635 12.27C53.8209 12.27 52.556 10.8941 52.556 8.99878C52.5546 7.19532 53.9086 5.72757 55.5735 5.72757Z" fill="white"/>
<path d="M61.7497 7.23416C61.0314 7.23416 60.4834 7.71169 60.2182 8.22833V7.38052H59.5092V12.6248H60.2182V9.76285C60.2182 8.71263 60.8896 7.82571 61.6845 7.82571C61.8181 7.82385 61.9511 7.84085 62.0794 7.87625L62.1177 7.88707L62.2417 7.29619L62.2098 7.28742C62.0601 7.24778 61.905 7.22978 61.7497 7.23416Z" fill="white"/>
<path d="M64.9082 11.7142L63.0903 7.38052H62.2983L64.5395 12.5897L64.0851 13.6514C63.9305 14.0142 63.7178 14.1829 63.4172 14.1829C63.2852 14.1834 63.1549 14.1557 63.0357 14.102L62.9946 14.0858L62.8705 14.709L62.8989 14.7191C63.0699 14.7859 63.2536 14.8187 63.4384 14.8156C64.046 14.8156 64.4268 14.5282 64.7147 13.8551L67.4969 7.4284L67.5174 7.38052H66.7482L64.9082 11.7142Z" fill="white"/>
<path d="M70.5355 7.23416C70.1328 7.23151 69.7375 7.33045 69.3887 7.52071C69.04 7.71103 68.7505 7.98595 68.5499 8.31738V7.38052H67.8409V14.7529H68.5499V11.7932C68.9455 12.4083 69.6715 12.7712 70.5201 12.7712C72.0346 12.7712 73.1345 11.6063 73.1345 10.0023C73.138 8.42396 72.0192 7.23416 70.5355 7.23416ZM72.4066 9.99958C72.4066 11.2812 71.6005 12.1769 70.4475 12.1769C69.2936 12.1769 68.4895 11.2859 68.4895 10.0043C68.4895 8.72279 69.2958 7.8277 70.4496 7.8277C71.6033 7.8277 72.4066 8.72279 72.4066 10.0043V9.99958Z" fill="white"/>
<path d="M74.8709 5.98227H74.1618V7.38052H73.2071V7.90865H74.1618V11.3486C74.1618 12.3975 74.843 12.7712 75.4815 12.7712C75.686 12.777 75.8912 12.748 76.0852 12.6855L76.1131 12.6768L76.0503 12.1061L76.0078 12.1183C75.8793 12.1541 75.7467 12.1748 75.6128 12.1796C75.1131 12.1796 74.8709 11.9179 74.8709 11.3796V7.90865H76.2304V7.38052H74.8709V5.98227Z" fill="white"/>
<path d="M79.1777 7.2341C77.7749 7.2341 76.3553 8.18517 76.3553 9.99959C76.3553 11.814 77.7777 12.7698 79.1777 12.7698C80.577 12.7698 82 11.8187 82 10.0009C82 8.18311 80.5798 7.2341 79.1777 7.2341ZM81.2902 9.99959C81.2902 11.2616 80.4018 12.1769 79.1777 12.1769C77.9528 12.1769 77.0644 11.2616 77.0644 9.99959C77.0644 8.7376 77.9528 7.82292 79.1777 7.82292C80.4018 7.82292 81.2902 8.74092 81.2902 10.0043V9.99959Z" fill="white"/>
</svg>
