<svg width="62" height="17" viewBox="0 0 62 17" fill="none" xmlns="http://www.w3.org/2000/svg">
<g clip-path="url(#clip0_68_1453)">
<path fill-rule="evenodd" clip-rule="evenodd" d="M33.5903 8.05893C33.5903 8.38228 33.4671 8.61775 33.2208 8.77239C32.9744 8.92352 32.6339 9.00084 32.2028 9.00084H29.8661V7.09594H32.1376C32.6484 7.09594 33.0179 7.18029 33.2461 7.3525C33.4744 7.5212 33.5903 7.74965 33.5903 8.03785V8.06245V8.05893ZM58.0874 9.00084L62.7753 3.7114C62.8985 3.57082 62.9746 3.39158 62.989 3.19476V2.98389C62.989 2.45319 62.5471 2.02441 62 2.02441H60.3191V2.01035H55.7182V3.67977H60.4748L55.566 9.22226V10.6703H62.9999V9.00084H58.0911H58.0874ZM53.7474 3.70789C53.8814 3.55676 53.9647 3.35995 53.9684 3.14556V2.96983C53.9684 2.44264 53.5264 2.01035 52.9793 2.01035H51.2984H46.6902V3.67977H51.4469L46.5381 9.22226V10.6703H53.972V9.00084H49.0631L53.751 3.70789H53.7474ZM43.8065 2.02089H42.8356V6.97293C42.8356 7.6653 42.6653 8.18546 42.3248 8.52989C41.9843 8.87783 41.5133 9.05004 40.9083 9.05004C40.3033 9.05004 39.8323 8.8708 39.4918 8.51231C39.1513 8.15383 38.981 7.61961 38.981 6.90967V2.00684H37.0174V6.95887C37.0174 8.23818 37.3616 9.19766 38.0499 9.84082C38.7383 10.484 39.6838 10.8073 40.8829 10.8073C41.4771 10.8073 42.0169 10.7265 42.5023 10.5648C42.9878 10.4032 43.4008 10.1607 43.7377 9.83379C44.0782 9.50694 44.3391 9.10276 44.5238 8.61424C44.6796 8.19952 44.7702 7.72154 44.7919 7.18029V2.97686C44.7919 2.44616 44.3499 2.01738 43.8029 2.01738L43.8065 2.02089ZM24.8268 2.01035H23.6965L21.349 5.67254L19.0014 2.01035H16.8857V10.6703H18.8239V5.05397L21.3091 8.71616H21.3599L23.8704 5.01883V10.6703H25.8086V2.90305C25.7724 2.40398 25.3449 2.01035 24.8232 2.01035H24.8268ZM29.8697 3.67977H31.8079C32.2245 3.67977 32.5433 3.75709 32.7643 3.90822C32.9853 4.05935 33.0976 4.28077 33.0976 4.57248V4.59708C33.0976 4.92042 32.9708 5.15238 32.7136 5.29648C32.46 5.44058 32.1122 5.51438 31.6811 5.51438H29.8697V3.68329V3.67977ZM35.0865 6.9167C34.7894 6.58984 34.3837 6.33328 33.8693 6.14349C34.0287 6.06266 34.1772 5.96073 34.3185 5.84827C34.4562 5.73229 34.5793 5.59873 34.6844 5.44409C34.7894 5.29296 34.8728 5.12075 34.938 4.93096C34.9996 4.74118 35.0322 4.52327 35.0322 4.27725V4.25265C35.0322 3.66572 34.8293 3.17719 34.4235 2.78004C33.8982 2.27043 33.1194 2.01387 32.0941 2.01387H27.9569V10.6703H32.1992C32.6991 10.6703 33.1556 10.6211 33.565 10.5227C33.9779 10.4242 34.3294 10.2731 34.6228 10.0763C34.9162 9.87948 35.1409 9.62995 35.2966 9.33472C35.4524 9.0395 35.5321 8.69156 35.5321 8.29793V8.27332C35.5321 7.69693 35.3836 7.24355 35.0865 6.92021V6.9167Z" fill="white"/>
<path fill-rule="evenodd" clip-rule="evenodd" d="M12.9986 6.37562V6.36507C12.9986 6.18231 12.9913 5.99956 12.9732 5.82031C12.9696 5.96441 12.8645 6.35804 12.6508 6.79385C12.466 7.17342 12.1762 7.64438 11.7197 8.20319C12.2957 8.15399 12.6979 7.99583 12.8537 7.7217C12.9478 7.28589 12.9986 6.83602 12.9986 6.3721V6.37562Z" fill="url(#paint0_linear_68_1453)"/>
<path fill-rule="evenodd" clip-rule="evenodd" d="M4.03932 12.403H4.05018C4.31102 12.403 5.14064 12.3713 6.24558 12.0374C6.52816 11.9531 6.82522 11.8476 7.13678 11.7211C7.61498 11.5243 8.12579 11.2713 8.64747 10.9444C8.62936 10.7335 8.604 10.5086 8.56415 10.2661C8.49894 9.85489 8.40112 9.40151 8.27433 8.92001C8.24897 8.81809 8.21999 8.71616 8.191 8.61424C8.12579 8.38228 8.05334 8.1468 7.97726 7.9043C7.86858 7.96053 7.7599 8.01676 7.64759 8.073C7.54615 8.12571 7.44472 8.17492 7.33603 8.22412C6.70929 8.52286 6.08618 8.77943 5.4848 8.99382C5.4051 9.02193 5.3254 9.05005 5.2457 9.07816C5.03558 9.14846 4.82908 9.21523 4.6262 9.27498C3.9089 9.48586 3.24593 9.62995 2.66266 9.70376C2.4453 9.73188 2.23518 9.74945 2.04317 9.75648C1.28601 9.78811 0.738976 9.67213 0.510742 9.40502C1.20631 10.6738 2.3185 11.6614 3.62994 12.2378C3.72051 12.2764 3.8147 12.3151 3.9089 12.3502C3.95237 12.3678 3.99222 12.3819 4.03569 12.3994L4.03932 12.403Z" fill="url(#paint1_linear_68_1453)"/>
<path fill-rule="evenodd" clip-rule="evenodd" d="M2.6374 8.41722C2.62291 8.87412 2.63378 9.30641 2.66638 9.70707C3.24965 9.63326 3.91261 9.49268 4.62992 9.27829C4.59369 9.10608 4.56833 8.92683 4.5466 8.74056C4.50675 8.71947 4.4669 8.69839 4.42705 8.68081C3.8619 8.3891 3.38731 8.122 2.98519 7.87598C2.85114 8.06576 2.73522 8.24501 2.63378 8.41722H2.6374Z" fill="url(#paint2_linear_68_1453)"/>
<path fill-rule="evenodd" clip-rule="evenodd" d="M2.12301 2.2915H2.10852C1.55423 2.2915 1.12312 2.40397 0.88402 2.75894C0.88402 2.75894 0.858661 2.79409 0.847793 2.81166C0.702882 3.15257 0.992703 3.63056 1.55785 4.16126C1.68827 4.15774 2.26429 4.10854 3.39822 4.38971C3.42358 4.31238 3.45256 4.23506 3.48154 4.16126C3.26418 3.48646 3.10478 2.87492 3.00696 2.3618C2.68816 2.32314 2.39109 2.29502 2.12301 2.29502V2.2915Z" fill="url(#paint3_linear_68_1453)"/>
<path fill-rule="evenodd" clip-rule="evenodd" d="M7.71647 0.0771484C8.00992 0.182586 8.26713 0.379402 8.48812 0.650024C8.81417 1.0542 9.05327 1.62708 9.19818 2.31593C9.29962 2.79392 9.35396 3.32813 9.36121 3.90452C9.36121 4.07673 9.36121 4.25246 9.35396 4.43522C9.35396 4.43522 9.36845 4.45982 9.3757 4.47388C9.72711 5.11353 10.0423 5.74264 10.3176 6.34364C10.6473 6.06598 10.9335 5.78833 11.1798 5.5142C11.2124 5.47905 11.245 5.4439 11.274 5.40524C11.2921 5.16625 11.303 4.93429 11.2994 4.71287C11.2958 4.3333 11.2668 3.98536 11.2197 3.66904C11.1327 3.08914 10.9878 2.61467 10.8067 2.22807C10.4118 1.37051 9.86115 0.93119 9.48438 0.702743C8.9301 0.414548 8.33234 0.203673 7.70923 0.0771484H7.71647Z" fill="url(#paint4_linear_68_1453)"/>
<path fill-rule="evenodd" clip-rule="evenodd" d="M7.1768 0.0283203H7.16955C6.70946 0.0283203 6.44862 0.15133 6.19141 0.302457C6.47398 0.492244 6.82177 0.790983 7.22752 1.24788C7.87237 0.794498 8.40129 0.667973 8.48824 0.6504C8.26725 0.376263 8.01003 0.179447 7.71659 0.0775244C7.68399 0.0704952 7.67312 0.0704952 7.65138 0.0669806C7.47024 0.0423786 7.31446 0.0318349 7.17318 0.0283203H7.1768Z" fill="url(#paint5_linear_68_1453)"/>
<path fill-rule="evenodd" clip-rule="evenodd" d="M1.43097 6.804C0.626721 7.77753 0.141271 8.72295 0.485433 9.34855C0.485433 9.34855 0.50717 9.39072 0.518038 9.4083C0.742649 9.6754 1.29331 9.79138 2.05047 9.75975C2.08307 9.63323 2.23523 9.10604 2.64098 8.41719C2.74242 8.24497 2.85834 8.06573 2.99239 7.87594C2.88733 7.81268 2.78589 7.74942 2.68807 7.68615C2.26421 7.41553 1.93092 7.17303 1.66283 6.94809C1.59038 6.88835 1.52154 6.83211 1.45996 6.77588C1.45271 6.78291 1.44547 6.79345 1.43822 6.804H1.43097Z" fill="url(#paint6_linear_68_1453)"/>
<path fill-rule="evenodd" clip-rule="evenodd" d="M9.20181 2.31943C8.8975 2.38621 8.5787 2.47759 8.24902 2.58654C8.42292 2.8431 8.60043 3.12778 8.78882 3.43707C8.8975 3.61631 9.00256 3.79907 9.10762 3.97831C9.19819 3.95371 9.28513 3.92911 9.36846 3.90451C9.36121 3.32812 9.30687 2.7939 9.20543 2.31592L9.20181 2.31943Z" fill="#A8549B"/>
<path fill-rule="evenodd" clip-rule="evenodd" d="M0.0109449 4.54772C-0.0180372 4.7586 -0.00354615 5.17683 0.431186 5.6759C0.713761 5.99924 0.9746 6.34719 1.45281 6.77596C1.51802 6.8322 1.58685 6.88843 1.65568 6.94818C1.92739 7.1696 2.25706 7.4121 2.68092 7.68624C2.77511 7.7495 2.87655 7.81276 2.98523 7.87603C3.38736 8.12205 3.86194 8.38564 4.4271 8.68086C4.46695 8.70195 4.5068 8.72304 4.54665 8.74061C4.7785 8.85659 5.01036 8.97257 5.24946 9.08152C5.32916 9.05341 5.40886 9.02529 5.48857 8.99718C6.08994 8.7863 6.71306 8.52974 7.3398 8.22748C7.44486 8.17828 7.54992 8.12556 7.65136 8.07636C7.76366 8.02012 7.87235 7.96389 7.98103 7.90766C7.9448 7.79871 7.90857 7.68975 7.87234 7.5808C7.5789 7.48591 7.27821 7.38047 6.9739 7.268C6.69857 7.16257 6.41599 7.0501 6.13342 6.92709C5.62985 6.70919 5.12267 6.46668 4.63359 6.21012C4.63359 6.21012 4.61548 6.19957 4.60461 6.19606C4.44159 6.11171 4.28218 6.02384 4.12278 5.93247C3.94527 5.83406 3.76775 5.73214 3.59748 5.63021C3.43084 5.5318 3.26781 5.42988 3.11203 5.32796C3.08305 5.30687 3.05407 5.2893 3.02146 5.27173C3.02146 5.27173 3.02146 5.27173 3.01784 5.26821C2.44182 4.89567 1.94188 4.51609 1.56149 4.16112C0.996337 3.63042 0.706516 3.15244 0.851426 2.81152C0.485527 3.34222 0.199329 3.92916 0.0109449 4.54772Z" fill="url(#paint7_linear_68_1453)"/>
<path fill-rule="evenodd" clip-rule="evenodd" d="M3.51397 4.89587V4.9029C3.57555 4.86073 3.62989 4.82207 3.69148 4.77989C3.65163 4.6604 3.60816 4.54441 3.57193 4.42843C3.54295 4.33706 3.51034 4.24568 3.48498 4.1543C3.456 4.23162 3.43064 4.30542 3.40166 4.38274C3.31471 4.63228 3.23139 4.89236 3.15894 5.15595C3.37268 4.99428 3.51759 4.89236 3.51759 4.89236L3.51397 4.89587Z" fill="#BDBDBC"/>
<path fill-rule="evenodd" clip-rule="evenodd" d="M7.14043 11.721C6.82887 11.8475 6.52819 11.9529 6.24923 12.0373C5.12618 12.3747 4.28932 12.4028 4.04297 12.4028C5.10082 12.7894 6.27097 12.9159 7.45199 12.7261C7.5643 12.7086 7.67298 12.6875 7.78528 12.6629C7.87223 12.6453 7.95918 12.6242 8.0425 12.6031H8.04975C8.04975 12.6031 8.05337 12.6031 8.05699 12.6031L8.35768 12.5188C8.45187 12.4661 8.52795 12.3571 8.58229 12.2025C8.60403 12.1392 8.62214 12.0654 8.63301 11.9881C8.68373 11.721 8.69098 11.3695 8.65475 10.9478C8.13307 11.2746 7.62226 11.5277 7.14406 11.7245L7.14043 11.721Z" fill="url(#paint8_linear_68_1453)"/>
<path fill-rule="evenodd" clip-rule="evenodd" d="M4.86175 2.73438C4.9342 3.05069 5.04651 3.43729 5.21678 3.90122C5.22402 3.90122 5.22765 3.89419 5.23489 3.89419C5.36531 3.57085 5.5066 3.28265 5.65876 3.01906C5.64426 2.99797 5.62977 2.97688 5.61528 2.95579C5.31097 2.49538 5.00666 2.09121 4.72046 1.75732C4.72046 1.89439 4.73857 2.21773 4.86175 2.73789V2.73438Z" fill="#BDBDBC"/>
<path fill-rule="evenodd" clip-rule="evenodd" d="M5.97749 3.52524C5.86881 3.34951 5.76375 3.1773 5.65506 3.01562C5.50653 3.27922 5.36162 3.56741 5.2312 3.89075C5.48479 3.76423 5.73114 3.64473 5.97749 3.52524Z" fill="#FABA00"/>
<path fill-rule="evenodd" clip-rule="evenodd" d="M5.2168 3.89745C5.2168 3.89745 5.22042 3.90799 5.22404 3.91502C5.36171 4.29108 5.53922 4.71634 5.76383 5.19081C5.79282 5.25056 5.8218 5.31031 5.85078 5.37005C5.89788 5.34194 5.9486 5.31734 5.99931 5.28922C6.25653 5.15215 6.50288 5.02563 6.7456 4.90965C6.49563 4.41409 6.23842 3.95017 5.9812 3.5249C5.73485 3.64088 5.4885 3.76389 5.23491 3.89042C5.23129 3.89042 5.22404 3.89745 5.2168 3.89745Z" fill="#A8549B"/>
<path fill-rule="evenodd" clip-rule="evenodd" d="M3.23865 0.70283C3.56107 0.639568 4.10087 1.02969 4.72036 1.75017C4.72036 1.88724 4.73847 2.21058 4.86165 2.73074C4.9341 3.04705 5.04641 3.43366 5.21668 3.89758C5.21668 3.89758 5.2203 3.90812 5.22392 3.91515C5.36159 4.29121 5.5391 4.71648 5.76371 5.19094C5.7927 5.25069 5.82168 5.31044 5.85066 5.37019C5.97383 5.62324 6.10788 5.88683 6.26003 6.16448C6.47378 6.55811 6.71288 6.92714 6.9701 7.26454C6.69477 7.1591 6.41219 7.04664 6.12961 6.92363C5.62605 6.70573 5.11886 6.46322 4.62979 6.20666C4.62979 6.20666 4.61168 6.19611 4.60081 6.1926C4.43778 6.10825 4.27838 6.02038 4.11898 5.929C3.9632 5.53186 3.81829 5.14525 3.69149 4.77622C3.65164 4.65673 3.61179 4.54075 3.57194 4.42477C3.54296 4.33339 3.51035 4.24201 3.485 4.15063C3.26763 3.47583 3.10823 2.86429 3.01041 2.35117C2.86188 1.55336 2.85101 0.906675 3.20967 0.713374C3.22053 0.706344 3.2314 0.70283 3.24227 0.695801L3.23865 0.70283Z" fill="url(#paint9_linear_68_1453)"/>
<path fill-rule="evenodd" clip-rule="evenodd" d="M5.99927 5.29276C6.23475 5.39468 6.4811 5.50715 6.73831 5.62664C6.89047 5.70045 7.04262 5.77074 7.18753 5.84454C7.04625 5.52472 6.89409 5.21192 6.74556 4.90967C6.50646 5.02565 6.25648 5.15217 5.99927 5.28924V5.29276Z" fill="#FABA00"/>
<path fill-rule="evenodd" clip-rule="evenodd" d="M12.158 3.23365C12.1689 3.26528 12.1761 3.30042 12.1834 3.33557C12.1834 3.33557 12.1834 3.34963 12.187 3.35666C12.1942 3.3918 12.1978 3.42695 12.2015 3.46561C12.2015 3.46561 12.2015 3.47264 12.2015 3.47615C12.2015 3.50427 12.2015 3.5359 12.2015 3.56402C12.2015 3.56402 12.2015 3.5851 12.2015 3.59565C12.2015 3.62025 12.2015 3.64134 12.1978 3.66594C12.1978 3.66594 12.1978 3.69054 12.1942 3.70108C12.1942 3.72569 12.187 3.75029 12.1834 3.77489C12.1834 3.77489 12.1834 3.79598 12.1761 3.80652C12.1689 3.84167 12.1616 3.87681 12.1507 3.91547C12.0384 4.35128 11.7414 4.86441 11.274 5.40565C11.2414 5.4408 11.2125 5.47594 11.1798 5.51461C10.9335 5.78874 10.6473 6.06639 10.3176 6.34404C10.5169 6.77634 10.698 7.19457 10.8538 7.5882C10.9407 7.80611 11.0241 8.01698 11.0965 8.22083C11.1581 8.39304 11.2161 8.56174 11.2668 8.7199C11.4298 8.54065 11.5784 8.37195 11.7124 8.21028C12.1689 7.65147 12.4587 7.177 12.6434 6.80094C12.8753 6.32999 12.9767 5.91175 12.9659 5.79929C12.9405 5.52515 12.9007 5.28616 12.8391 5.01202C12.7557 4.63948 12.6398 4.28099 12.4949 3.93656C12.4949 3.93656 12.4877 3.92602 12.4804 3.90844C12.4333 3.80301 12.3862 3.69406 12.3355 3.59213C12.2486 3.40586 12.1435 3.19147 12.0747 3.08252C12.1037 3.13172 12.129 3.18444 12.1471 3.24068L12.158 3.23365Z" fill="url(#paint10_linear_68_1453)"/>
<path fill-rule="evenodd" clip-rule="evenodd" d="M11.7195 8.2063C11.5855 8.36797 11.4406 8.54018 11.2739 8.71591C11.3065 8.81081 11.3319 8.90219 11.3609 8.99005C11.3971 9.10603 11.4261 9.21498 11.4514 9.32042C11.5456 9.68242 11.5927 9.97765 11.5927 10.1815C11.5927 10.2518 11.5927 10.2869 11.5782 10.3361C11.5674 10.3748 12.4079 9.4364 12.8535 7.71777C12.7013 7.99191 12.2955 8.15358 11.7159 8.20279L11.7195 8.2063Z" fill="url(#paint11_linear_68_1453)"/>
<path fill-rule="evenodd" clip-rule="evenodd" d="M5.51387 0H5.51024C5.51024 0 5.49575 0 5.48851 0C5.31824 0.0210875 5.15884 0.0456895 4.95234 0.091379C4.34009 0.221418 3.76407 0.428778 3.23877 0.702915C3.5612 0.639653 4.10099 1.02977 4.72048 1.75026C5.00668 2.08414 5.30737 2.48832 5.6153 2.94873C5.62979 2.96982 5.64429 2.9909 5.65515 3.01199C5.76384 3.17366 5.87252 3.34588 5.97758 3.5216C6.2348 3.94687 6.49564 4.41079 6.74198 4.90635C6.89414 5.2086 7.04267 5.51788 7.18396 5.84122C7.20932 5.89746 7.23468 5.95369 7.26004 6.00992C7.4919 6.54414 7.69477 7.07133 7.87229 7.57742C7.90851 7.68638 7.94474 7.79533 7.98097 7.90428C8.05705 8.14679 8.1295 8.38226 8.19471 8.61422C8.22369 8.71615 8.25268 8.82158 8.27804 8.91999C8.40483 9.40149 8.50265 9.85487 8.56786 10.2661C8.60771 10.5086 8.63307 10.7335 8.65118 10.9444C8.68741 11.3626 8.68016 11.7176 8.62944 11.9847C8.61495 12.062 8.59684 12.1358 8.57873 12.1991C8.52438 12.3537 8.45193 12.4627 8.35411 12.5154C9.5134 12.1639 10.5097 11.5243 11.2813 10.6984C11.332 10.6456 11.4009 10.5754 11.4588 10.5086C11.5168 10.4418 11.5675 10.375 11.5784 10.3399C11.5929 10.2907 11.5929 10.2555 11.5929 10.1852C11.5929 9.98139 11.5458 9.68617 11.4516 9.32417C11.4226 9.21873 11.3936 9.10978 11.361 8.9938C11.3356 8.90593 11.3067 8.81456 11.2741 8.71966C11.2233 8.56151 11.1654 8.39281 11.1038 8.22059C11.0313 8.02026 10.948 7.80939 10.8611 7.58797C10.7053 7.19785 10.5242 6.77962 10.3249 6.34381C10.0496 5.74282 9.73076 5.11371 9.38298 4.47405C9.38298 4.47405 9.36849 4.44945 9.36124 4.43539C9.27792 4.28427 9.1946 4.12963 9.10765 3.9785C9.00621 3.79574 8.89753 3.6165 8.78885 3.43725C8.60408 3.12797 8.42295 2.84329 8.24905 2.58673C7.87953 2.03494 7.53537 1.59562 7.22743 1.25119C6.82168 0.797809 6.4739 0.49907 6.19132 0.305768C5.9015 0.108952 5.67327 0 5.51387 0V0Z" fill="url(#paint12_linear_68_1453)"/>
<path fill-rule="evenodd" clip-rule="evenodd" d="M1.45294 6.77246C1.45294 6.77246 1.43824 6.79355 1.43457 6.80409C1.44192 6.79355 1.44927 6.78652 1.45661 6.77598L1.45294 6.77246Z" fill="#78378D"/>
<path fill-rule="evenodd" clip-rule="evenodd" d="M3.69162 4.78349V4.77295L3.5141 4.89596C3.5141 4.89596 3.36919 4.99437 3.15545 5.15955C3.11197 5.1947 3.06488 5.22984 3.01416 5.2685C3.01416 5.2685 3.01778 5.2685 3.01778 5.27202C3.04677 5.29311 3.07575 5.31068 3.10835 5.33177C3.26413 5.43369 3.42716 5.5321 3.5938 5.63402C3.76407 5.73594 3.94159 5.83787 4.1191 5.93627C3.96332 5.53913 3.82204 5.15604 3.69162 4.78701V4.78349Z" fill="#A8549B"/>
<path fill-rule="evenodd" clip-rule="evenodd" d="M10.814 2.22803C10.9915 2.61463 11.14 3.0891 11.227 3.669C11.6291 3.6936 11.937 3.78147 12.1544 3.91502C12.1653 3.87636 12.1725 3.84122 12.1797 3.80607C12.1797 3.80607 12.1797 3.78498 12.187 3.77444C12.1906 3.74984 12.1942 3.72524 12.1979 3.70063C12.1979 3.70063 12.1979 3.67603 12.2015 3.66549C12.2015 3.64089 12.2015 3.61628 12.2051 3.5952C12.2051 3.5952 12.2051 3.57411 12.2051 3.56357C12.2051 3.53193 12.2051 3.50382 12.2051 3.4757C12.2051 3.4757 12.2051 3.46867 12.2051 3.46516C12.2051 3.4265 12.1979 3.39135 12.1906 3.35621C12.1906 3.35621 12.1906 3.34215 12.187 3.33512C12.1797 3.29997 12.1725 3.26483 12.1616 3.2332C12.1435 3.17696 12.1182 3.12424 12.0892 3.07504C12.0892 3.07504 12.0674 3.04341 12.0566 3.02584C12.0095 2.95203 11.9588 2.88525 11.9044 2.82199C11.6255 2.49865 11.2596 2.30535 10.8212 2.22803H10.814Z" fill="url(#paint13_linear_68_1453)"/>
</g>
<defs>
<linearGradient id="paint0_linear_68_1453" x1="12.1617" y1="8.20671" x2="13.0417" y2="6.41038" gradientUnits="userSpaceOnUse">
<stop stop-color="#FDC100"/>
<stop offset="1" stop-color="#D88D00"/>
</linearGradient>
<linearGradient id="paint1_linear_68_1453" x1="0.539724" y1="10.0798" x2="8.54955" y2="10.1993" gradientUnits="userSpaceOnUse">
<stop stop-color="#E52A12"/>
<stop offset="1" stop-color="#C11510"/>
</linearGradient>
<linearGradient id="paint2_linear_68_1453" x1="3.12647" y1="10.1288" x2="3.62122" y2="8.80431" gradientUnits="userSpaceOnUse">
<stop stop-color="#474949"/>
<stop offset="1" stop-color="#BDBDBC"/>
</linearGradient>
<linearGradient id="paint3_linear_68_1453" x1="2.67729" y1="3.33533" x2="0.894966" y2="3.28679" gradientUnits="userSpaceOnUse">
<stop stop-color="#FDC100"/>
<stop offset="1" stop-color="#D88D00"/>
</linearGradient>
<linearGradient id="paint4_linear_68_1453" x1="8.6113" y1="5.05379" x2="9.84418" y2="1.64128" gradientUnits="userSpaceOnUse">
<stop stop-color="#F9CEDA"/>
<stop offset="1" stop-color="#E72486"/>
</linearGradient>
<linearGradient id="paint5_linear_68_1453" x1="7.22752" y1="0.587138" x2="7.84612" y2="-0.0396392" gradientUnits="userSpaceOnUse">
<stop stop-color="#BDBDBC"/>
<stop offset="1" stop-color="#515456"/>
</linearGradient>
<linearGradient id="paint6_linear_68_1453" x1="1.28244" y1="8.97249" x2="2.04589" y2="7.49473" gradientUnits="userSpaceOnUse">
<stop stop-color="#5E1F71"/>
<stop offset="1" stop-color="#A8549B"/>
</linearGradient>
<linearGradient id="paint7_linear_68_1453" x1="0.601456" y1="4.71994" x2="7.24826" y2="8.26911" gradientUnits="userSpaceOnUse">
<stop stop-color="#008F37"/>
<stop offset="1" stop-color="#B9CF38"/>
</linearGradient>
<linearGradient id="paint8_linear_68_1453" x1="5.92681" y1="12.7578" x2="7.81172" y2="10.6343" gradientUnits="userSpaceOnUse">
<stop stop-color="#E62486"/>
<stop offset="1" stop-color="#F6BDD4"/>
</linearGradient>
<linearGradient id="paint9_linear_68_1453" x1="4.51386" y1="5.50023" x2="5.54607" y2="2.26231" gradientUnits="userSpaceOnUse">
<stop stop-color="#F3911B"/>
<stop offset="1" stop-color="#E73E11"/>
</linearGradient>
<linearGradient id="paint10_linear_68_1453" x1="10.7958" y1="6.51626" x2="12.5587" y2="5.20734" gradientUnits="userSpaceOnUse">
<stop stop-color="#C61C10"/>
<stop offset="0.48" stop-color="#E52A12"/>
<stop offset="0.98" stop-color="#B5292D"/>
<stop offset="1" stop-color="#C21010"/>
</linearGradient>
<linearGradient id="paint11_linear_68_1453" x1="11.2775" y1="9.02168" x2="12.8208" y2="9.03662" gradientUnits="userSpaceOnUse">
<stop stop-color="#B0CA39"/>
<stop offset="1" stop-color="#00904A"/>
</linearGradient>
<linearGradient id="paint12_linear_68_1453" x1="10.7162" y1="13.3343" x2="7.23553" y2="4.06559" gradientUnits="userSpaceOnUse">
<stop stop-color="#0B3671"/>
<stop offset="1" stop-color="#35B0E6"/>
</linearGradient>
<linearGradient id="paint13_linear_68_1453" x1="12.513" y1="3.78147" x2="10.9113" y2="2.73949" gradientUnits="userSpaceOnUse">
<stop stop-color="#5E1F71"/>
<stop offset="1" stop-color="#A8549B"/>
</linearGradient>
<clipPath id="clip0_68_1453">
<rect width="62" height="17" fill="white"/>
</clipPath>
</defs>
</svg>
