<svg width="125" height="35" viewBox="0 0 125 35" fill="none" xmlns="http://www.w3.org/2000/svg">
<g clip-path="url(#clip0_68_2)">
<path fill-rule="evenodd" clip-rule="evenodd" d="M65.7065 16.5919C65.7065 17.2576 65.4581 17.7424 64.9615 18.0608C64.4648 18.3719 63.7782 18.5311 62.909 18.5311H58.198V14.6093H62.7776C63.8074 14.6093 64.5524 14.7829 65.0126 15.1375C65.4727 15.4848 65.7065 15.9551 65.7065 16.5485V16.5991V16.5919ZM115.096 18.5311L124.547 7.64111C124.796 7.35167 124.949 6.98264 124.978 6.57743V6.14328C124.978 5.05066 124.087 4.16788 122.984 4.16788H119.595V4.13893H110.319V7.57598H119.909L110.012 18.987V21.9682H125V18.5311H115.103H115.096ZM106.346 7.63387C106.616 7.32273 106.784 6.91752 106.791 6.47613V6.11433C106.791 5.02895 105.9 4.13893 104.797 4.13893H101.408H92.1176V7.57598H101.708L91.8108 18.987V21.9682H106.799V18.5311H96.9017L106.353 7.63387H106.346ZM86.3036 4.16064H84.3462V14.356C84.3462 15.7815 84.0029 16.8524 83.3163 17.5615C82.6297 18.2779 81.6802 18.6324 80.4605 18.6324C79.2407 18.6324 78.2912 18.2634 77.6046 17.5253C76.918 16.7873 76.5748 15.6874 76.5748 14.2258V4.1317H72.616V14.3271C72.616 16.9609 73.3099 18.9363 74.6976 20.2605C76.0854 21.5847 77.9917 22.2504 80.4093 22.2504C81.6072 22.2504 82.6955 22.0839 83.6742 21.7511C84.6529 21.4182 85.4856 20.919 86.1649 20.246C86.8514 19.5731 87.3773 18.741 87.7498 17.7352C88.0639 16.8813 88.2465 15.8973 88.2903 14.7829V6.1288C88.2903 5.03619 87.3992 4.15341 86.2963 4.15341L86.3036 4.16064ZM48.0382 4.13893H45.7593L41.0264 11.6787L36.2934 4.13893H32.0279V21.9682H35.9355V10.4052L40.946 17.945H41.0483L46.1099 10.3329V21.9682H50.0176V5.97685C49.9445 4.94935 49.0826 4.13893 48.0309 4.13893H48.0382ZM58.2053 7.57598H62.1129C62.9529 7.57598 63.5956 7.73517 64.0412 8.04631C64.4867 8.35746 64.7131 8.81332 64.7131 9.4139V9.46455C64.7131 10.1303 64.4575 10.6078 63.9389 10.9045C63.4276 11.2012 62.7264 11.3531 61.8573 11.3531H58.2053V7.58322V7.57598ZM68.723 14.2402C68.1241 13.5673 67.306 13.0391 66.2689 12.6483C66.5902 12.4819 66.8897 12.2721 67.1746 12.0405C67.4521 11.8017 67.7004 11.5268 67.9123 11.2084C68.1241 10.8973 68.2921 10.5427 68.4235 10.152C68.5477 9.76122 68.6134 9.3126 68.6134 8.80608V8.75543C68.6134 7.54704 68.2044 6.54125 67.3864 5.72359C66.3273 4.67439 64.7569 4.14617 62.6899 4.14617H54.3488V21.9682H62.9017C63.9097 21.9682 64.83 21.8669 65.6553 21.6643C66.488 21.4617 67.1965 21.1505 67.7881 20.7453C68.3797 20.3401 68.8326 19.8263 69.1466 19.2185C69.4607 18.6107 69.6214 17.8944 69.6214 17.0839V17.0333C69.6214 15.8466 69.3219 14.9132 68.723 14.2475V14.2402Z" fill="white"/>
<path fill-rule="evenodd" clip-rule="evenodd" d="M8.14391 25.5355H8.16582C8.6917 25.5355 10.3643 25.4703 12.592 24.7829C13.1617 24.6093 13.7607 24.3922 14.3888 24.1317C15.3529 23.7265 16.3828 23.2055 17.4345 22.5326C17.398 22.0984 17.3469 21.6353 17.2666 21.136C17.1351 20.2894 16.9379 19.356 16.6822 18.3647C16.6311 18.1548 16.5727 17.945 16.5142 17.7352C16.3828 17.2576 16.2367 16.7728 16.0833 16.2735C15.8642 16.3893 15.6451 16.5051 15.4187 16.6208C15.2141 16.7294 15.0096 16.8307 14.7905 16.932C13.5269 17.547 12.2706 18.0753 11.0582 18.5166C10.8975 18.5745 10.7368 18.6324 10.5761 18.6903C10.1525 18.835 9.73617 18.9725 9.32715 19.0955C7.88096 19.5297 6.54434 19.8263 5.3684 19.9783C4.93016 20.0362 4.50653 20.0724 4.11942 20.0868C2.59289 20.152 1.49 19.9132 1.02985 19.3632C2.43221 21.9754 4.67452 24.0087 7.31856 25.1954C7.50116 25.275 7.69106 25.3546 7.88096 25.4269C7.96861 25.4631 8.04895 25.492 8.1366 25.5282L8.14391 25.5355Z" fill="url(#paint0_linear_68_2)"/>
<path fill-rule="evenodd" clip-rule="evenodd" d="M5.31729 17.33C5.28808 18.2706 5.30999 19.1606 5.37572 19.9855C6.55166 19.8336 7.88829 19.5441 9.33447 19.1028C9.26143 18.7482 9.2103 18.3792 9.16648 17.9957C9.08614 17.9523 9.00579 17.9088 8.92545 17.8727C7.78603 17.2721 6.82921 16.7221 6.01847 16.2156C5.74823 16.6064 5.5145 16.9754 5.30999 17.33H5.31729Z" fill="url(#paint1_linear_68_2)"/>
<path fill-rule="evenodd" clip-rule="evenodd" d="M4.28012 4.7178H4.2509C3.13339 4.7178 2.26422 4.94935 1.78216 5.68018C1.78216 5.68018 1.73103 5.75254 1.70912 5.78872C1.41696 6.4906 2.00128 7.47468 3.1407 8.5673C3.40364 8.56006 4.56497 8.45876 6.85111 9.03763C6.90224 8.87844 6.96067 8.71925 7.0191 8.5673C6.58086 7.17801 6.25949 5.91896 6.06228 4.86252C5.41953 4.78293 4.82061 4.72504 4.28012 4.72504V4.7178Z" fill="url(#paint2_linear_68_2)"/>
<path fill-rule="evenodd" clip-rule="evenodd" d="M15.5575 0.159195C16.1491 0.376272 16.6677 0.781482 17.1132 1.33864C17.7706 2.17077 18.2526 3.35022 18.5448 4.76846C18.7493 5.75254 18.8588 6.85239 18.8735 8.03908C18.8735 8.39364 18.8735 8.75543 18.8588 9.1317C18.8588 9.1317 18.8881 9.18235 18.9027 9.21129C19.6112 10.5282 20.2466 11.8234 20.8017 13.0608C21.4664 12.4892 22.0434 11.9175 22.54 11.3531C22.6058 11.2808 22.6715 11.2084 22.7299 11.1288C22.7665 10.6368 22.7884 10.1592 22.7811 9.70333C22.7738 8.92186 22.7153 8.2055 22.6204 7.55427C22.4451 6.36035 22.1529 5.38351 21.7877 4.58756C20.9916 2.822 19.8814 1.91752 19.1218 1.44718C18.0043 0.85384 16.7991 0.419687 15.5428 0.159195H15.5575Z" fill="url(#paint3_linear_68_2)"/>
<path fill-rule="evenodd" clip-rule="evenodd" d="M14.4692 0.0578918H14.4546C13.527 0.0578918 13.0011 0.311148 12.4825 0.622291C13.0522 1.01303 13.7534 1.62808 14.5714 2.56875C15.8715 1.63532 16.9379 1.37482 17.1132 1.33864C16.6677 0.774245 16.1491 0.369035 15.5575 0.159194C15.4917 0.144723 15.4698 0.144723 15.426 0.137487C15.0608 0.0868354 14.7467 0.0651277 14.4619 0.0578918H14.4692Z" fill="url(#paint4_linear_68_2)"/>
<path fill-rule="evenodd" clip-rule="evenodd" d="M2.88505 14.0087C1.26357 16.013 0.284841 17.9595 0.978718 19.2475C0.978718 19.2475 1.02254 19.3343 1.04445 19.3705C1.4973 19.9204 2.6075 20.1592 4.13403 20.0941C4.19976 19.8336 4.50653 18.7482 5.32457 17.33C5.52909 16.9754 5.76281 16.6064 6.03306 16.2156C5.82124 16.0854 5.61673 15.9551 5.41953 15.8249C4.56496 15.2677 3.893 14.7684 3.35251 14.3053C3.20643 14.1823 3.06765 14.0666 2.94348 13.9508C2.92888 13.9653 2.91427 13.987 2.89966 14.0087H2.88505Z" fill="url(#paint5_linear_68_2)"/>
<path fill-rule="evenodd" clip-rule="evenodd" d="M18.5521 4.77568C17.9385 4.91317 17.2958 5.1013 16.6311 5.32561C16.9817 5.85383 17.3396 6.43994 17.7194 7.0767C17.9385 7.44573 18.1504 7.82199 18.3622 8.19102C18.5448 8.14037 18.7201 8.08972 18.8881 8.03907C18.8735 6.85238 18.7639 5.75253 18.5594 4.76845L18.5521 4.77568Z" fill="#4E74EE"/>
<path fill-rule="evenodd" clip-rule="evenodd" d="M0.0219167 9.36324C-0.036515 9.79739 -0.00729913 10.6585 0.869176 11.686C1.43889 12.3517 1.96477 13.068 2.92889 13.9508C3.06036 14.0666 3.19914 14.1823 3.33792 14.3054C3.88571 14.7612 4.55037 15.2605 5.40494 15.8249C5.59484 15.9551 5.79935 16.0854 6.01847 16.2156C6.82921 16.7221 7.78603 17.2648 8.92545 17.8726C9.00579 17.9161 9.08613 17.9595 9.16648 17.9957C9.63393 18.2344 10.1014 18.4732 10.5834 18.6975C10.7441 18.6397 10.9048 18.5818 11.0655 18.5239C12.278 18.0897 13.5342 17.5615 14.7978 16.9392C15.0096 16.8379 15.2215 16.7294 15.426 16.6281C15.6524 16.5123 15.8715 16.3965 16.0906 16.2808C16.0176 16.0564 15.9446 15.8321 15.8715 15.6078C15.2799 15.4124 14.6737 15.1954 14.0601 14.9638C13.505 14.7467 12.9353 14.5152 12.3656 14.2619C11.3504 13.8133 10.3278 13.314 9.34177 12.7858C9.34177 12.7858 9.30525 12.7641 9.28334 12.7569C8.95466 12.5832 8.63329 12.4023 8.31191 12.2142C7.95402 12.0116 7.59612 11.8017 7.25284 11.5919C6.91686 11.3893 6.58818 11.1794 6.27411 10.9696C6.21568 10.9262 6.15724 10.89 6.09151 10.8538C6.09151 10.8538 6.09151 10.8538 6.0842 10.8466C4.92287 10.0796 3.91493 9.29812 3.14801 8.56729C2.00859 7.47467 1.42428 6.49059 1.71644 5.78871C0.978736 6.88133 0.401723 8.08972 0.0219167 9.36324Z" fill="url(#paint6_linear_68_2)"/>
<path fill-rule="evenodd" clip-rule="evenodd" d="M7.08484 10.0796V10.0941C7.209 10.0072 7.31856 9.92765 7.44273 9.84081C7.36239 9.59479 7.27474 9.35601 7.2017 9.11723C7.14327 8.92909 7.07753 8.74096 7.02641 8.55283C6.96797 8.71202 6.91685 8.86397 6.85841 9.02316C6.68312 9.53691 6.51513 10.0724 6.36905 10.6151C6.79998 10.2822 7.09214 10.0724 7.09214 10.0724L7.08484 10.0796Z" fill="#4E74EE"/>
<path fill-rule="evenodd" clip-rule="evenodd" d="M14.3961 24.1317C13.768 24.3922 13.1617 24.6093 12.5993 24.7829C10.3351 25.4776 8.64788 25.5355 8.15121 25.5355C10.284 26.3314 12.6432 26.5919 15.0242 26.2012C15.2507 26.165 15.4698 26.1216 15.6962 26.0709C15.8715 26.0347 16.0468 25.9913 16.2148 25.9479H16.2294C16.2294 25.9479 16.2367 25.9479 16.244 25.9479L16.8502 25.7742C17.0401 25.6657 17.1935 25.4414 17.3031 25.123C17.3469 24.9928 17.3834 24.8408 17.4053 24.6816C17.5076 24.1317 17.5222 23.4081 17.4492 22.5398C16.3974 23.2127 15.3675 23.7337 14.4034 24.1389L14.3961 24.1317Z" fill="url(#paint7_linear_68_2)"/>
<path fill-rule="evenodd" clip-rule="evenodd" d="M9.80191 5.62953C9.94799 6.28076 10.1744 7.07671 10.5177 8.03184C10.5323 8.03184 10.5396 8.01737 10.5542 8.01737C10.8172 7.35167 11.102 6.75833 11.4088 6.21564C11.3796 6.17222 11.3504 6.1288 11.3211 6.08539C10.7076 5.13749 10.0941 4.30536 9.51706 3.61795C9.51706 3.90015 9.55358 4.56585 9.80191 5.63676V5.62953Z" fill="#4E74EE"/>
<path fill-rule="evenodd" clip-rule="evenodd" d="M12.0516 7.25759C11.8324 6.8958 11.6206 6.54124 11.4015 6.20839C11.102 6.75108 10.8099 7.34442 10.5469 8.01013C11.0582 7.74963 11.5549 7.50361 12.0516 7.25759Z" fill="#5FD8FA"/>
<path fill-rule="evenodd" clip-rule="evenodd" d="M10.5177 8.0246C10.5177 8.0246 10.525 8.04631 10.5323 8.06078C10.8099 8.83502 11.1678 9.71057 11.6206 10.6874C11.679 10.8104 11.7375 10.9334 11.7959 11.0564C11.8908 10.9986 11.9931 10.9479 12.0954 10.89C12.6139 10.6078 13.1106 10.3473 13.6 10.1085C13.096 9.08828 12.5774 8.13314 12.0588 7.2576C11.5622 7.49638 11.0655 7.74964 10.5542 8.01013C10.5469 8.01013 10.5323 8.0246 10.5177 8.0246Z" fill="#4E74EE"/>
<path fill-rule="evenodd" clip-rule="evenodd" d="M6.52973 1.44718C7.17978 1.31693 8.26807 2.12012 9.51705 3.60348C9.51705 3.88568 9.55357 4.55138 9.8019 5.62229C9.94798 6.27352 10.1744 7.06947 10.5177 8.02461C10.5177 8.02461 10.525 8.04631 10.5323 8.06078C10.8098 8.83502 11.1677 9.71057 11.6206 10.6874C11.679 10.8104 11.7375 10.9334 11.7959 11.0564C12.0442 11.5774 12.3145 12.1201 12.6212 12.6918C13.0522 13.5022 13.5342 14.2619 14.0528 14.9566C13.4977 14.7395 12.928 14.508 12.3583 14.2547C11.343 13.8061 10.3205 13.3068 9.33445 12.7786C9.33445 12.7786 9.29793 12.7569 9.27602 12.7496C8.94734 12.576 8.62596 12.3951 8.30459 12.207C7.99052 11.3893 7.69836 10.5933 7.44272 9.83358C7.36238 9.58756 7.28203 9.34877 7.20169 9.10999C7.14326 8.92186 7.07752 8.73372 7.0264 8.54559C6.58816 7.1563 6.26678 5.89725 6.06958 4.84081C5.77011 3.19827 5.7482 1.86686 6.47129 1.46889C6.49321 1.45442 6.51512 1.44718 6.53703 1.43271L6.52973 1.44718Z" fill="url(#paint8_linear_68_2)"/>
<path fill-rule="evenodd" clip-rule="evenodd" d="M12.0954 10.8972C12.5701 11.1071 13.0668 11.3386 13.5854 11.5847C13.8921 11.7366 14.1989 11.8813 14.4911 12.0333C14.2062 11.3748 13.8994 10.7308 13.6 10.1085C13.1179 10.3473 12.6139 10.6078 12.0954 10.89V10.8972Z" fill="#5FD8FA"/>
<path fill-rule="evenodd" clip-rule="evenodd" d="M24.5121 6.65701C24.534 6.72214 24.5486 6.7945 24.5632 6.86685C24.5632 6.86685 24.5632 6.8958 24.5705 6.91027C24.5851 6.98263 24.5925 7.05499 24.5998 7.13458C24.5998 7.13458 24.5998 7.14905 24.5998 7.15629C24.5998 7.21418 24.5998 7.2793 24.5998 7.33719C24.5998 7.33719 24.5998 7.3806 24.5998 7.40231C24.5998 7.45296 24.5998 7.49638 24.5925 7.54703C24.5925 7.54703 24.5925 7.59768 24.5851 7.61939C24.5851 7.67004 24.5705 7.72069 24.5632 7.77134C24.5632 7.77134 24.5632 7.81476 24.5486 7.83646C24.534 7.90882 24.5194 7.98118 24.4975 8.06078C24.2711 8.95803 23.6722 10.0145 22.7299 11.1288C22.6642 11.2012 22.6058 11.2735 22.54 11.3531C22.0434 11.9175 21.4664 12.4891 20.8017 13.0608C21.2034 13.9508 21.5686 14.8119 21.8827 15.6223C22.058 16.0709 22.226 16.5051 22.372 16.9247C22.4962 17.2793 22.6131 17.6266 22.7153 17.9522C23.044 17.5832 23.3435 17.2359 23.6137 16.903C24.534 15.7525 25.1183 14.7757 25.4908 14.0014C25.9583 13.0318 26.1628 12.1708 26.1409 11.9392C26.0898 11.3748 26.0094 10.8828 25.8853 10.3184C25.7173 9.55137 25.4835 8.81331 25.1914 8.10419C25.1914 8.10419 25.1768 8.08248 25.1622 8.0463C25.0672 7.82923 24.9723 7.60492 24.87 7.39507C24.6947 7.01157 24.4829 6.57018 24.3441 6.34587C24.4026 6.44717 24.4537 6.55571 24.4902 6.67149L24.5121 6.65701Z" fill="url(#paint9_linear_68_2)"/>
<path fill-rule="evenodd" clip-rule="evenodd" d="M26.2066 13.1042V13.1187C26.2066 14.0738 26.1044 15 25.9145 15.8973C25.9133 15.8993 25.9122 15.9013 25.9111 15.9033C25.0118 19.4332 23.3216 21.3602 23.3435 21.2807C23.3727 21.1794 23.3727 21.1071 23.3727 20.9624C23.3727 20.5427 23.2777 19.9349 23.0878 19.1896C23.0367 18.9725 22.9783 18.7482 22.9052 18.5094C22.8799 18.4311 22.856 18.3515 22.8317 18.2706C22.7998 18.1644 22.7672 18.0559 22.7299 17.945C23.0659 17.5832 23.3581 17.2286 23.6283 16.8958L23.621 16.8886C23.6236 16.8883 23.6263 16.8881 23.6289 16.8879C24.5488 15.7377 25.133 14.7683 25.5054 13.987C25.9364 13.0897 26.1482 12.2793 26.1555 11.9826C26.192 12.3517 26.2066 12.7279 26.2066 13.1042Z" fill="url(#paint10_linear_68_2)"/>
<path fill-rule="evenodd" clip-rule="evenodd" d="M11.1166 0H11.1093C11.1093 0 11.0801 0 11.0655 0C10.7222 0.0434153 10.4009 0.0940666 9.98453 0.188133C8.75016 0.455861 7.58883 0.882779 6.52975 1.44718C7.17981 1.31693 8.2681 2.12012 9.51707 3.60347C10.0941 4.29088 10.7003 5.12301 11.3212 6.07091C11.3504 6.11433 11.3796 6.15774 11.4015 6.20116C11.6206 6.53401 11.8397 6.88857 12.0515 7.25036C12.5701 8.12591 13.096 9.08104 13.5927 10.1013C13.8995 10.7236 14.1989 11.3603 14.4838 12.0261C14.5349 12.1418 14.586 12.2576 14.6372 12.3734C15.1046 13.4732 15.5136 14.5586 15.8715 15.6006C15.9446 15.8249 16.0176 16.0492 16.0906 16.2735C16.244 16.7728 16.3901 17.2576 16.5216 17.7352C16.58 17.945 16.6384 18.1621 16.6896 18.3647C16.9452 19.356 17.1424 20.2894 17.2739 21.136C17.3542 21.6353 17.4054 22.0984 17.4419 22.5326C17.5149 23.3936 17.5003 24.1245 17.398 24.6744C17.3688 24.8336 17.3323 24.9855 17.2958 25.1158C17.1862 25.4342 17.0402 25.6585 16.8429 25.767C19.1802 25.0434 21.1888 23.7265 22.7445 22.0261C22.8468 21.9175 22.9856 21.7728 23.1024 21.6353C23.2193 21.4978 23.3216 21.3603 23.3435 21.288C23.3727 21.1867 23.3727 21.1143 23.3727 20.9696C23.3727 20.5499 23.2777 19.9421 23.0878 19.1968C23.0294 18.9797 22.971 18.7554 22.9052 18.5166C22.8541 18.3357 22.7957 18.1476 22.7299 17.9522C22.6277 17.6266 22.5108 17.2793 22.3867 16.9247C22.2406 16.5123 22.0726 16.0781 21.8973 15.6223C21.5832 14.8191 21.218 13.958 20.8163 13.0608C20.2612 11.8234 19.6185 10.5282 18.9173 9.21129C18.9173 9.21129 18.8881 9.16064 18.8734 9.13169C18.7055 8.82055 18.5375 8.50217 18.3622 8.19103C18.1577 7.81476 17.9385 7.44573 17.7194 7.0767C17.3469 6.43994 16.9817 5.85384 16.6311 5.32562C15.8861 4.18958 15.1923 3.28509 14.5714 2.57598C13.7534 1.64255 13.0522 1.0275 12.4825 0.629523C11.8982 0.224313 11.438 0 11.1166 0V0Z" fill="url(#paint11_linear_68_2)"/>
<path fill-rule="evenodd" clip-rule="evenodd" d="M2.92888 13.9436C2.92888 13.9436 2.89967 13.987 2.89236 14.0087C2.90697 13.987 2.92158 13.9725 2.93619 13.9508L2.92888 13.9436Z" fill="#78378D"/>
<path fill-rule="evenodd" clip-rule="evenodd" d="M7.44275 9.84805V9.82634L7.08485 10.0796C7.08485 10.0796 6.79269 10.2822 6.36176 10.6223C6.27411 10.6946 6.17916 10.767 6.0769 10.8466C6.0769 10.8466 6.08421 10.8466 6.08421 10.8538C6.14264 10.8973 6.20107 10.9334 6.26681 10.9768C6.58088 11.1867 6.90956 11.3893 7.24554 11.5991C7.58882 11.809 7.94672 12.0188 8.30461 12.2214C7.99054 11.4038 7.70569 10.6151 7.44275 9.85528V9.84805Z" fill="#4E74EE"/>
<path fill-rule="evenodd" clip-rule="evenodd" d="M21.8023 4.58755C22.1602 5.3835 22.4597 6.36035 22.635 7.55427C23.4457 7.60492 24.0666 7.78582 24.5048 8.06078C24.5267 7.98119 24.5413 7.90883 24.5559 7.83647C24.5559 7.83647 24.5559 7.79305 24.5705 7.77135C24.5778 7.7207 24.5851 7.67004 24.5924 7.61939C24.5924 7.61939 24.5925 7.56874 24.5998 7.54703C24.5998 7.49638 24.5998 7.44573 24.6071 7.40232C24.6071 7.40232 24.6071 7.3589 24.6071 7.33719C24.6071 7.27207 24.6071 7.21418 24.6071 7.1563C24.6071 7.1563 24.6071 7.14182 24.6071 7.13459C24.6071 7.05499 24.5925 6.98263 24.5778 6.91028C24.5778 6.91028 24.5778 6.88133 24.5705 6.86686C24.5559 6.7945 24.5413 6.72214 24.5194 6.65702C24.4829 6.54125 24.4318 6.43271 24.3733 6.3314C24.3733 6.3314 24.3295 6.26628 24.3076 6.2301C24.2126 6.07815 24.1104 5.94067 24.0008 5.81042C23.4384 5.14472 22.7007 4.74674 21.8169 4.58755H21.8023Z" fill="url(#paint12_linear_68_2)"/>
<path fill-rule="evenodd" clip-rule="evenodd" d="M59.2863 35H64.1945C65.239 35 66.4149 34.1823 66.8678 33.1621H60.0386L60.7398 31.3603H65.166L65.8744 29.5224H61.6527C61.6381 29.4645 61.6454 29.3922 61.6747 29.3126L62.0764 28.2923C62.1567 28.0753 62.4051 27.9016 62.6242 27.9016H68.9275C69.2708 26.8813 68.7303 26.0637 67.6858 26.0637H62.7776C61.7039 26.0637 60.4768 26.9392 60.0605 28.0029C59.6222 29.1172 59.184 30.2388 58.7531 31.3531L58.0519 33.1548C57.7086 34.1751 58.2491 34.9928 59.2936 34.9928L59.2863 35ZM68.7668 35C67.7223 35 67.1818 34.1823 67.5251 33.1621H73.8284C74.0476 33.1621 74.2959 32.9884 74.3762 32.7713L74.778 31.7511C74.8656 31.534 74.7561 31.3603 74.5369 31.3603H70.885C68.292 31.3603 68.8471 29.7902 68.891 29.6889L69.5483 28.0101C69.9647 26.9465 71.1917 26.0709 72.2654 26.0709H84.9816C86.0626 26.0709 86.5958 26.9465 86.1794 28.0101L85.3833 30.0579L85.3322 30.1954C85.1788 30.5282 84.6383 31.3676 83.0753 31.3676H81.4392C80.8622 31.3676 80.2048 31.8379 79.9857 32.4096L78.9704 35.0072H78.4446C77.3709 35.0072 76.8304 34.1317 77.2467 33.068L78.5541 29.7178H82.8927C83.1118 29.7178 83.3601 29.5441 83.4405 29.3271L83.8422 28.3068C83.9298 28.0897 83.8203 27.9161 83.6011 27.9161H72.112C71.8929 27.9161 71.6446 28.0897 71.5642 28.3068L71.1625 29.3271C71.0749 29.5441 71.1844 29.7178 71.4035 29.7178H75.26C76.2899 29.7178 77.3928 30.152 77.0568 31.3965L76.3994 33.0753C75.9831 34.1389 74.756 35.0145 73.6824 35.0145H68.7741L68.7668 35ZM86.0626 35H91.1242C92.2052 35 93.425 34.1245 93.8413 33.0608L95.8134 28.0101C96.2297 26.9465 95.6892 26.0709 94.6155 26.0709H89.5539C88.4729 26.0709 87.2531 26.9465 86.8368 28.0101L84.8647 33.0608C84.4484 34.1245 84.9889 35 86.0626 35ZM95.8353 35C94.7543 35 94.2211 34.1317 94.6374 33.0608L96.5219 28.1476L96.6241 27.9088C97.077 26.8886 98.2529 26.0709 99.2974 26.0709H105.192C106.265 26.0709 106.806 26.9465 106.39 28.0101L105.776 29.5876L105.455 30.4197C105.111 31.288 104.293 31.6643 103.388 31.7149L104.98 35H102.496L100.897 31.7221H99.1951L99.8305 30.0724H102.957C103.176 30.0724 103.424 29.8987 103.504 29.6816L103.607 29.4284L104.045 28.3068C104.133 28.0897 104.023 27.9161 103.804 27.9161H99.1075L96.3685 35.0145H95.8426L95.8353 35ZM109.435 35H109.961L112.751 27.9016H115.928C116.272 26.8813 115.731 26.0637 114.687 26.0637H107.843L107.127 27.9016H110.268L108.237 33.0535C107.821 34.1172 108.362 34.9928 109.435 34.9928V35ZM115.578 35C114.533 35 114 34.1823 114.336 33.1621H120.64C120.859 33.1621 121.107 32.9884 121.187 32.7713L121.589 31.7511C121.677 31.534 121.567 31.3603 121.348 31.3603H117.696C115.103 31.3603 115.658 29.7902 115.702 29.6889L116.359 28.0101C116.776 26.9465 118.003 26.0709 119.076 26.0709H125.007C124.708 27.6266 123.517 27.9016 123.291 27.9088H118.916C118.697 27.9088 118.448 28.0825 118.368 28.2996L117.966 29.3198C117.879 29.5369 117.988 29.7106 118.207 29.7106H122.064C123.094 29.7106 124.197 30.1447 123.861 31.3893L123.203 33.068C122.787 34.1317 121.56 35.0072 120.486 35.0072H115.578V35ZM86.8076 33.1621L88.5605 28.6686C88.6847 28.3575 89.2033 27.9016 89.5466 27.9016H93.8632L92.1103 32.3951C91.9861 32.7062 91.4675 33.1621 91.1242 33.1621H86.8076Z" fill="url(#paint13_linear_68_2)"/>
</g>
<defs>
<linearGradient id="paint0_linear_68_2" x1="1.08828" y1="20.7525" x2="17.2373" y2="20.9885" gradientUnits="userSpaceOnUse">
<stop stop-color="#6634DA"/>
<stop offset="1" stop-color="#5FD8FA"/>
</linearGradient>
<linearGradient id="paint1_linear_68_2" x1="6.30333" y1="20.8538" x2="7.33806" y2="18.1411" gradientUnits="userSpaceOnUse">
<stop stop-color="#6634DA"/>
<stop offset="1" stop-color="#4E74EE"/>
</linearGradient>
<linearGradient id="paint2_linear_68_2" x1="5.39762" y1="6.86686" x2="1.80412" y2="6.77102" gradientUnits="userSpaceOnUse">
<stop stop-color="#5FD8FA"/>
<stop offset="0.0001" stop-color="#5FD8FA"/>
<stop offset="1" stop-color="#6634DA"/>
</linearGradient>
<linearGradient id="paint3_linear_68_2" x1="19.976" y1="13.9721" x2="19.9782" y2="3.42982" gradientUnits="userSpaceOnUse">
<stop stop-color="#5FD8FA"/>
<stop offset="1" stop-color="#4E74EE"/>
</linearGradient>
<linearGradient id="paint4_linear_68_2" x1="14.5714" y1="1.2084" x2="15.8451" y2="-0.055335" gradientUnits="userSpaceOnUse">
<stop stop-color="#5FD8FA"/>
<stop offset="1" stop-color="#4E74EE"/>
</linearGradient>
<linearGradient id="paint5_linear_68_2" x1="2.58559" y1="18.4732" x2="4.17634" y2="15.458" gradientUnits="userSpaceOnUse">
<stop stop-color="#4B1CB8"/>
<stop offset="1" stop-color="#4E74EE"/>
</linearGradient>
<linearGradient id="paint6_linear_68_2" x1="-3.94589" y1="5.7984" x2="14.7008" y2="16.8375" gradientUnits="userSpaceOnUse">
<stop stop-color="#6634DA"/>
<stop offset="1" stop-color="#5FD8FA"/>
</linearGradient>
<linearGradient id="paint7_linear_68_2" x1="11.9493" y1="26.2663" x2="19.693" y2="21.803" gradientUnits="userSpaceOnUse">
<stop stop-color="#5FD8FA"/>
<stop offset="1" stop-color="#6634DA"/>
</linearGradient>
<linearGradient id="paint8_linear_68_2" x1="9.10072" y1="11.3242" x2="9.9151" y2="-1.50328" gradientUnits="userSpaceOnUse">
<stop stop-color="#5FD8FA"/>
<stop offset="1" stop-color="#6634DA"/>
</linearGradient>
<linearGradient id="paint9_linear_68_2" x1="21.7658" y1="13.4153" x2="25.3726" y2="10.7929" gradientUnits="userSpaceOnUse">
<stop stop-color="#5FD8FA"/>
<stop offset="0.48" stop-color="#5FD8FA"/>
<stop offset="0.98" stop-color="#4E74EE"/>
</linearGradient>
<linearGradient id="paint10_linear_68_2" x1="22.0194" y1="20.8533" x2="26.1612" y2="14.3241" gradientUnits="userSpaceOnUse">
<stop stop-color="#6634DA"/>
<stop offset="1" stop-color="#5FD8FA"/>
</linearGradient>
<linearGradient id="paint11_linear_68_2" x1="22.0899" y1="28.503" x2="14.3333" y2="8.46743" gradientUnits="userSpaceOnUse">
<stop stop-color="#6634DA"/>
<stop offset="1" stop-color="#5FD8FA"/>
</linearGradient>
<linearGradient id="paint12_linear_68_2" x1="25.2279" y1="7.78582" x2="21.9587" y2="5.70319" gradientUnits="userSpaceOnUse">
<stop stop-color="#5FD8FA"/>
<stop offset="1" stop-color="#4E74EE"/>
</linearGradient>
<linearGradient id="paint13_linear_68_2" x1="56.4402" y1="29.3064" x2="123.239" y2="30.5052" gradientUnits="userSpaceOnUse">
<stop stop-color="#5FD8FA"/>
<stop offset="0.526042" stop-color="#4E74EE"/>
<stop offset="1" stop-color="#6634DA"/>
</linearGradient>
<clipPath id="clip0_68_2">
<rect width="125" height="35" fill="white"/>
</clipPath>
</defs>
</svg>
